<svg width="582" height="579" viewBox="0 0 582 579" fill="none" xmlns="http://www.w3.org/2000/svg">
<path d="M256 579C397.385 579 512 464.385 512 323C512 181.615 397.385 67.0001 256 67.0001C114.615 67.0001 0 181.615 0 323C0 464.385 114.615 579 256 579Z" fill="url(#paint0_linear_3_141)"/>
<path d="M256 353.118C272.633 353.118 286.118 339.634 286.118 323C286.118 306.367 272.633 292.882 256 292.882C239.366 292.882 225.882 306.367 225.882 323C225.882 339.634 239.366 353.118 256 353.118Z" fill="#7173F0"/>
<path d="M256 142.294C156.199 142.294 75.2939 223.199 75.2939 323C75.2939 422.801 156.199 503.706 256 503.706C355.801 503.706 436.706 422.801 436.706 323C436.706 223.199 355.801 142.294 256 142.294ZM256 428.412C197.782 428.412 150.588 381.217 150.588 323C150.588 264.783 197.782 217.588 256 217.588C314.217 217.588 361.412 264.783 361.412 323C361.412 381.217 314.217 428.412 256 428.412Z" fill="#7172F0"/>
<path d="M570.723 68.6478L524.193 57.1901L512.735 10.6593C510.129 0.074945 496.957 -3.59941 489.248 4.1087L439.462 53.8952C431.467 61.8894 428.235 73.4807 430.937 84.4586L443.975 137.406L496.923 150.444C507.901 153.147 519.492 149.914 527.486 141.92L577.273 92.1336C584.981 84.4255 581.308 71.254 570.723 68.6478Z" fill="#7B7EF7"/>
<path d="M570.723 68.6479L524.193 57.1901L512.735 10.6593C510.129 0.0750034 496.958 -3.59835 489.25 4.10776L461.215 32.1433C453.22 40.1375 449.988 51.7298 452.69 62.7067L465.728 115.654L518.676 128.692C529.654 131.395 541.245 128.162 549.239 120.168L577.274 92.1336C584.981 84.4255 581.308 71.254 570.723 68.6479Z" fill="#7B7EF7"/>
<path d="M570.723 68.6478L524.193 57.19L512.735 10.6592C510.129 0.0758885 496.959 -3.59846 489.251 4.10663L482.965 10.3922C474.971 18.3864 471.739 29.9777 474.441 40.9556L487.479 93.9034L540.427 106.941C551.405 109.644 562.996 106.411 570.99 98.417L577.273 92.1345C584.981 84.4254 581.308 71.2539 570.723 68.6478Z" fill="#7B7EF7"/>
<path d="M256 340.569C251.503 340.569 247.008 338.854 243.577 335.424C236.716 328.563 236.716 317.438 243.577 310.578L441.293 112.861C448.154 106 459.277 106 466.139 112.861C473 119.722 473 130.846 466.139 137.707L268.424 335.424C264.993 338.854 260.497 340.569 256 340.569Z" fill="#7173F0"/>
<defs>
<linearGradient id="paint0_linear_3_141" x1="-12.0471" y1="323" x2="506.117" y2="323" gradientUnits="userSpaceOnUse">
<stop stop-color="#7B75F1"/>
<stop offset="1" stop-color="#7A7FF9"/>
</linearGradient>
</defs>
</svg>
